<?xml version="1.0" standalone="no"?>
<!DOCTYPE svg PUBLIC "-//W3C//DTD SVG 20010904//EN"
 "http://www.w3.org/TR/2001/REC-SVG-20010904/DTD/svg10.dtd">
<svg version="1.0" xmlns="http://www.w3.org/2000/svg"
 width="512.000000pt" height="512.000000pt" viewBox="0 0 512.000000 512.000000"
 preserveAspectRatio="xMidYMid meet">

<g transform="translate(0.000000,512.000000) scale(0.100000,-0.100000)"
fill="#000000" stroke="none">
<path d="M2412 5100 c-105 -28 -166 -64 -253 -150 l-76 -75 -1016 -2032 c-559
-1117 -1026 -2059 -1037 -2093 -98 -291 71 -621 368 -722 l67 -23 2065 -3
c2295 -3 2137 -7 2280 64 123 62 230 189 281 334 32 92 32 257 0 348 -12 35
-479 978 -1038 2095 l-1016 2032 -76 75 c-88 87 -149 123 -257 150 -96 25
-197 25 -292 0z m234 -295 c27 -8 69 -31 93 -51 39 -33 130 -213 1059 -2070
l1017 -2034 0 -73 c-1 -88 -32 -155 -97 -211 -82 -71 75 -66 -2158 -66 -2233
0 -2076 -5 -2158 66 -65 56 -96 123 -97 211 l0 73 1017 2034 c909 1818 1021
2037 1058 2068 72 63 170 82 266 53z"/>
<path d="M2465 3838 c-135 -25 -273 -133 -333 -259 -62 -130 -62 -123 12 -888
37 -376 73 -701 80 -722 35 -101 100 -173 196 -218 47 -22 69 -26 150 -26 85
0 101 3 150 28 94 49 164 131 189 222 6 22 38 346 72 720 53 601 59 688 49
749 -31 198 -189 359 -384 395 -69 13 -111 13 -181 -1z m148 -299 c49 -13 103
-69 117 -118 8 -31 -1 -168 -45 -668 -66 -760 -60 -711 -90 -725 -40 -18 -73
-3 -84 40 -6 20 -38 326 -71 679 -68 710 -68 684 -4 748 49 50 107 64 177 44z"/>
<path d="M2451 1434 c-124 -33 -227 -121 -284 -241 -30 -64 -32 -75 -32 -179
0 -107 1 -112 38 -186 63 -129 175 -212 320 -239 180 -33 369 66 454 239 37
74 38 79 38 186 0 104 -2 115 -32 179 -92 194 -302 295 -502 241z m164 -298
c68 -29 96 -126 56 -192 -20 -32 -74 -64 -111 -64 -37 0 -91 32 -111 64 -40
65 -12 163 54 191 41 18 69 18 112 1z"/>
</g>
</svg>
